<?xml version="1.0" encoding="utf-8"?>
<!-- Generator: Adobe Illustrator 25.0.0, SVG Export Plug-In . SVG Version: 6.00 Build 0)  -->
<svg version="1.1" id="Слой_1" xmlns="http://www.w3.org/2000/svg" xmlns:xlink="http://www.w3.org/1999/xlink" x="0px" y="0px"
	 viewBox="0 0 768 768" style="enable-background:new 0 0 768 768;" xml:space="preserve">
<style type="text/css">
	.st0{fill:none;stroke:#75BED0;stroke-width:2;}
	.st1{fill:none;stroke:#087193;stroke-width:2;}
	.st2{fill:none;stroke:#0386AA;stroke-width:2;}
	.st3{fill:none;stroke:#005B7D;stroke-width:2;}
	.st4{fill:none;stroke:#7BAFC2;stroke-width:2;}
	.st5{fill:none;stroke:#6DADC1;stroke-width:2;}
	.st6{fill:none;stroke:#3198B9;stroke-width:2;}
	.st7{fill:none;stroke:#34BFDF;stroke-width:2;}
	.st8{fill:none;stroke:#3194B2;stroke-width:2;}
	.st9{fill:none;stroke:#0381A3;stroke-width:2;}
	.st10{fill:none;stroke:#6DA8BA;stroke-width:2;}
	.st11{fill:none;stroke:#7BABBB;stroke-width:2;}
	.st12{fill:none;stroke:#036282;stroke-width:2;}
	.st13{fill:none;stroke:#068DAF;stroke-width:2;}
	.st14{fill:none;stroke:#7ED6E8;stroke-width:2;}
	.st15{fill:none;stroke:#83C1D0;stroke-width:2;}
	.st16{fill:#1082A1;}
	.st17{fill:#005F84;}
	.st18{opacity:0.75;fill:#62D1EE;}
	.st19{fill:#005676;}
	.st20{fill:#056E8E;}
	.st21{fill:#06ACD0;}
	.st22{fill:#F6FFFF;}
</style>
<g>
	<path vector-effect="non-scaling-stroke" class="st0" d="M766.8,368.2c-2.3-39.3-9.5-77.5-21.7-114.7c-11.2-34.2-28.8-67.5-49-97.3
		c-30.9-45.6-73.5-82.3-121.3-109.3c-19.2-10.8-38.6-18.7-60.6-26.2c-22.9-7.8-45-14.1-68.5-16.8c-15-1.8-31.8-1.7-47.6-2.4
		c-15.8-0.6-36.1-0.2-60.8,1.3c-29.3,1.8-57.6,8.5-85.5,17.8c-71.8,23.8-134.4,73.5-178,134.8C33.2,212.2,8.8,283.2,2.4,352
		c-2.3,24.8-1.1,51.4,1.2,75.7c7.2,75.1,39.2,148.5,86.3,206.9c14.5,17.9,31,33.6,49.6,48.3c25.2,20,52.4,37.3,81.6,49.5
		c17.3,7.3,35.1,13.5,53.2,18.7c31.3,8.9,65.8,13.8,98.4,15.8"/>
	<path vector-effect="non-scaling-stroke" class="st0" d="M766.8,399.4c-0.3,21.5-3,43.4-7.9,65.8c-14.4,64.9-42.5,122.7-84.4,173.4
		c-56.9,68.8-145.2,111.4-232,123.8c-10.8,1.5-27.2,3-49.2,4.4"/>
	<path vector-effect="non-scaling-stroke" class="st1" d="M581.4,193.3c-48-49.2-115.1-83.1-184.8-83.9c-30.7-0.4-61.5,0-90.8,9.4
		c-88.1,28.3-155.4,93.9-188.7,179.7c-18.7,48.2-21.5,98.6-12.8,149.4c8.1,47.7,32.4,93.1,65.1,128.3c4.4,4.7,9.1,9.5,13.9,14.3
		c38.8,38.3,85.4,62.5,139.8,72.6c10.1,1.9,19.2,3,27.4,3.3c20,0.8,41.2,0.8,63.8-0.2c8.7-0.4,16.3-1.3,24.4-2.9
		c32.1-6.4,62.4-17.4,91-33c5.8-3.2,11.5-6.7,16.9-10.6c23.7-16.9,46.8-38,64.3-61.4c37.3-50.1,60.6-115.3,54.8-178.2
		C659.3,310.1,630.8,244,581.4,193.3"/>
	<path vector-effect="non-scaling-stroke" class="st2" d="M181.8,344l3.5,0c0.4,0,0.8,0.3,0.8,0.8c0,0,0,0,0,0
		c0,66.6,0,133.2-0.1,199.8c0,4.2,0.4,7.4,1.3,9.6c2.2,5.3,8.1,11.2,14.4,11.2c41.6,0,83.2,0,124.8,0c1.7,0,4.1-0.5,5.9-1.4
		c8.7-4.5,17-9,22.3-15.7"/>
	<path vector-effect="non-scaling-stroke" class="st3" d="M354.7,548.3c0.6,0.7,1.3,1.2,2.1,1.4c0.3,0.1,0.6,0.2,0.8,0.5l3,3.5"/>
	<path vector-effect="non-scaling-stroke" class="st2" d="M360.6,553.7c-0.4,0.6-0.6,1.3-0.6,2.1c0,0.4,0.2,0.6,0.6,0.7l15.1,2.1
		c0.4,0,0.7-0.2,0.8-0.6c0,0,0,0,0,0l1.4-11.1c0.1-0.5-0.2-0.8-0.7-0.8l-8.1-0.5"/>
	<path vector-effect="non-scaling-stroke" class="st3" d="M369,545.5c-0.4-2.2-0.7-4.1,0.1-6.4c3.1-8.6,5.5-17.4,7.2-26.3
		c0.1-0.3,0.1-0.7,0-1l-0.3-1.5c-0.1-0.3,0-0.5,0.3-0.6c3.6-1.5,10.3-0.5,14.5-0.5c0.4,0,0.8,0.3,0.8,0.7c1.1,7.9,3.6,15.5,5.6,23.4
		c1.5,5.8,2.8,9.9,4.1,12.4c5.1,10.3,11,15.2,22.8,19.8c2.5,1,4.5,3.7,1.4,5.5c-2.2,1.2-5.8,2.4-10.8,3.6c-3.7,0.8-6.4-0.1-9.6-1.6
		c-15.3-7.2-33.4-5.5-49.4-0.9c-5,1.4-8.1,5.3-13.4,1.1c-3.2-2.5-5.6-0.8-9.1-1.1c-0.1,0-0.2,0-0.3,0.1l-0.2,0.4
		c-0.1,0.2-0.3,0.3-0.5,0.2c-0.1,0-0.2,0-0.3,0"/>
	<path vector-effect="non-scaling-stroke" class="st2" d="M332,572.8c0.1-0.4-0.3-0.7-1.1-0.9c-0.3-0.1-0.8-0.1-1.3-0.1
		c-41.7-0.2-83.6-0.3-125.6-0.1c-0.3,0-0.6,0.3-0.6,0.6c0,0.2,0.1,0.3,0.2,0.5c8.3,7.7,17,15,26.2,21.9c1,0.8,3,0.9,6,0.3"/>
	<path vector-effect="non-scaling-stroke" class="st3" d="M235.8,594.9c-0.2,0.2-0.5,0.4-0.9,0.4c-0.2,0-0.2,0.1-0.1,0.2l2.2,4.2"/>
	<path vector-effect="non-scaling-stroke" class="st2" d="M236.9,599.7c0.1,0.8,0.9,1.6,2.4,2.5c13.4,8.3,27.3,14.9,41.7,19.9
		c0.3,0.1,0.6,0,0.8-0.2c0.3-0.4,0.4-0.9,0.4-1.6"/>
	<path vector-effect="non-scaling-stroke" class="st3" d="M282.2,620.3c1.7,3.6,4.1,5.1,7.4,4.3c0.3-0.1,0.7,0,1,0.1
		c1.3,0.6,2.6,0.7,4,0.3c0.2-0.1,0.3-0.2,0.1-0.4l-0.2-0.2c-0.2-0.2-0.2-0.3,0-0.5l0.3-0.3"/>
	<path vector-effect="non-scaling-stroke" class="st4" d="M294.7,623.7l25.4,4.9"/>
	<path vector-effect="non-scaling-stroke" class="st3" d="M320.1,628.5c-1.3,0.7-1.7,1.5-1.3,2.6c0.1,0.3,0.1,0.6-0.2,0.8l-1.2,0.9
		c-0.2,0.2-0.2,0.3,0,0.5c2.4,1.8,5.2,3,8.4,3.4c6.9,0.9,15.4,2.2,25.5,4c0.5,0.1,0.7-0.1,0.7-0.6v-0.5c0-0.4,0.2-0.5,0.5-0.5
		c6.3-0.1,12.5,1.1,18.9,1.9c3.8,0.5,7.6,1.3,11.3,2.6c1.5,0.5,3,0.7,4.4,0.6c10.9-1,21.7-2.3,32.5-4.1c4.1-0.7,7.9,0,12.2-1
		c4.1-1,8.3-1.9,12.5-2.8c0.3-0.1,0.6-0.2,0.8-0.4c0.8-0.7,1.8-1.2,2.9-1.3c0.2,0,0.4-0.1,0.5-0.2l3-3.4c0.2-0.3,0.2-0.5,0-0.7
		l-2.6-2.1"/>
	<path vector-effect="non-scaling-stroke" class="st5" d="M448.8,628.3c4.8-0.9,11.9-2.6,21.4-5.1c2.2-0.6,4-1.3,5.5-2.3
		c0.3-0.2,0.3-0.5,0.2-0.8c0,0,0,0-0.1-0.1c-6.1-6.6-22.3-8.4-30.9-8.4"/>
	<path vector-effect="non-scaling-stroke" class="st3" d="M444.8,611.6c-0.1-0.6,0.4-1.1,1.3-1.6c0.2-0.1,0.3-0.3,0.3-0.5l0-1.6
		c0-0.3,0.3-0.6,0.6-0.6c0,0,0,0,0.1,0c0.7,0.1,1.2-0.2,1.4-0.7c0.2-0.3,0.4-0.5,0.7-0.6l2.6-0.7c0,0,0.1-0.1,0-0.1c0,0,0,0-0.1-0.1
		l-4.2-0.1"/>
	<path vector-effect="non-scaling-stroke" class="st2" d="M447.6,604.9c12.2-0.7,29.5,3.2,35.6,15c0.2,0.3,0.4,0.4,0.7,0.3
		c1.7-0.4,3.2-0.8,4.3-1.3c12.7-5,24.8-11.1,36.3-18.4c0.5-0.3,0.4-0.4-0.1-0.4l-12-0.3"/>
	<path vector-effect="non-scaling-stroke" class="st3" d="M512.5,599.7l3.4,0c0.3,0,0.3-0.1,0-0.2c-0.1,0-0.3-0.1-0.4-0.1
		c-0.3,0-0.4-0.2-0.2-0.4c0.8-1.8,1.2-3.2,1.2-4.3"/>
	<path vector-effect="non-scaling-stroke" class="st2" d="M516.4,594.8c4.3-0.1,9-0.2,13.9-0.4c6.4-0.2,24.8-17.8,30-22.6"/>
	<path vector-effect="non-scaling-stroke" class="st3" d="M560.4,571.9l2.5-1.1c0.1-0.1,0.2-0.1,0.3-0.2l2.1-4.4c0-0.1,0-0.1,0-0.1
		c-0.1-0.1-0.2-0.1-0.3-0.2c-0.2-0.1-0.2-0.1,0-0.2l0.4,0c0,0,0.1,0,0.1-0.1c0,0,0-0.1-0.1-0.1l0,0l-2.1-0.1"/>
	<path vector-effect="non-scaling-stroke" class="st2" d="M563.2,565.3c11.2-0.6,19.4-8.2,19.5-19.7c0.3-47.2,0.3-109.7,0.1-187.6
		c0-3.8-0.4-9.4,0.2-14.2"/>
	<path vector-effect="non-scaling-stroke" class="st6" d="M582.9,343.9l5.3-0.4c0.3,0,0.5,0.1,0.5,0.4l0.3,197
		c0,0.2,0.1,0.3,0.3,0.3c0.1,0,0.2,0,0.3-0.1c28.2-34.5,43.2-73.2,50-116.9c5.4-34.8-2.3-71.5-13.4-105.2
		c-11.4-34.7-30.5-64.1-53.7-91.1c-34.4-40.1-81.2-73.5-133.1-85.1c-84.3-18.7-167.9,7.5-229.7,67c-27.5,26.5-50.1,55.9-63.9,90.6
		c-12.4,31.3-21.5,67.3-19.6,101.2c3.1,53.7,18.8,103.2,52.2,145.7c0.3,0.4,0.5,0.4,0.5-0.2l0.3-202.5c0-0.3,0.3-0.6,0.6-0.6h1.9"/>
	<path vector-effect="non-scaling-stroke" class="st7" d="M582.9,343.9l-0.9-4c-0.1-0.3-0.2-0.6-0.4-0.9c-0.9-1-1.2-2.2-0.9-3.5"/>
	<path vector-effect="non-scaling-stroke" class="st8" d="M580.7,335.5c18.8-4.7,23.5-26.7,7.2-37.7"/>
	<path vector-effect="non-scaling-stroke" class="st7" d="M587.9,297.8l0.5-1.6c0.1-0.3,0.3-0.6,0.6-0.7c1.8-1.1,2.2-2.2,1.3-3.3"/>
	<path vector-effect="non-scaling-stroke" class="st8" d="M590.2,292.2c2.9,0.4,4.6-6,4.7-8.3c1.9-25.9-36.5-30.2-42.4-5.4
		c-1.4,5.9-0.3,11.5,5.7,13.8"/>
	<path vector-effect="non-scaling-stroke" class="st7" d="M558.2,292.3c0.5,2.6,3.2,2,3.3,4.7"/>
	<path vector-effect="non-scaling-stroke" class="st8" d="M561.4,297c-13.8,10.3-13.7,31.3,4,37.4"/>
	<path vector-effect="non-scaling-stroke" class="st7" d="M565.5,334.4l-1.7,9.9"/>
	<path vector-effect="non-scaling-stroke" class="st8" d="M563.8,344.3l-5.7,0.1c-0.4,0-0.6,0.2-0.6,0.6l0.1,166.4"/>
	<path vector-effect="non-scaling-stroke" class="st7" d="M557.6,511.3l-0.7,12.3"/>
	<path vector-effect="non-scaling-stroke" class="st8" d="M556.9,523.6l-56.6,0.1c-1.7,0-3-1.4-3.1-3c0-10.5,1.6-27.6-1.5-35.9
		c-2.6-7-8.3-11.1-17.1-12.4c-0.4-0.1-0.6-0.3-0.6-0.7v-5.5c0-0.4,0.2-0.7,0.6-0.8c12.9-4.1,19.4-12.4,19.3-25
		c0-16.6-18.2-30.5-33.8-22.3c-21.5,11.3-16.4,41.9,6.9,47.2c0.4,0.1,0.5,0.3,0.5,0.7v5.5c0,0.4-0.3,0.8-0.7,0.9
		c-8.9,1.6-14.6,6.1-17.3,13.4c-1,2.7-1.5,7.2-1.5,13.6c0,14.1,0,28.2,0,42.3c0,0.3-0.2,0.5-0.5,0.5h-45.4c-0.4,0-0.6-0.2-0.7-0.5
		l-7.7-30.5c-0.1-0.3,0.1-0.7,0.4-0.8c26.7-7.7,45.6-37.8,25.4-62.7c-5.5-6.8-12.8-11.5-22-14.1c-0.3-0.1-0.5-0.3-0.5-0.6v-16.5
		c0-0.4,0.2-0.7,0.5-0.9c7.5-4.3,5.7-13,5.1-19.7c0-0.4,0.1-0.6,0.5-0.7c38.9-10.8,67.7-41.4,75.1-81c4.6-24.4,0.1-47.1-13.4-68.1
		c-48.9-75.9-151.5-57.8-179.9,24.8C270.8,324,307.6,380.5,360,394.7c0.3,0.1,0.5,0.3,0.5,0.7c-0.8,8-2.4,16.7,6.7,20.7
		c0.2,0.1,0.3,0.2,0.3,0.4l0.3,15.8c0,0.3-0.2,0.6-0.4,0.6c-17.9,5.5-32.9,21.9-30.4,41.2c2.3,18.3,17.3,31.3,34.5,36
		c0.3,0.1,0.4,0.3,0.3,0.6c-2.5,10-5.6,23.8-10.8,31c-0.2,0.2-0.4,0.4-0.7,0.4l-43.2-0.2c-0.3,0-0.5-0.2-0.5-0.5l0,0
		c0.2-24.1,0.1-39.7-0.2-46.8c-0.6-12.8-7.1-20.4-19.5-22.7c-0.3-0.1-0.4-0.2-0.4-0.5l0.4-4.9c0-0.3,0.2-0.5,0.5-0.6
		c8.2-2.1,14.1-6.5,17.8-13.1c16.8-30.5-29.9-53.2-42.2-20.9c-5.5,14.3,2.5,29,16.8,33.6c0.4,0.1,0.7,0.5,0.7,0.9l0.2,4.8
		c0,0.4-0.2,0.8-0.6,0.8c-8.5,1.8-14.1,6.1-16.6,13c-1,2.7-1.5,7.6-1.5,14.6c0,7.1,0,14.2,0,21.5c0,1.3-1,2.3-2.3,2.3l-57.6,0.5"/>
	<path vector-effect="non-scaling-stroke" class="st7" d="M211.8,523.7l-1.7-13.1"/>
	<path vector-effect="non-scaling-stroke" class="st8" d="M210.1,510.6l-0.2-167.3"/>
	<path vector-effect="non-scaling-stroke" class="st7" d="M209.9,343.3c0.8-3.3,0.2-6.9-1.7-10.8"/>
	<path vector-effect="non-scaling-stroke" class="st8" d="M208.2,332.4c12.9-8.6,13.1-25.5,0.5-34.5"/>
	<path vector-effect="non-scaling-stroke" class="st7" d="M208.6,297.9c0.1-2.9,1.2-5,3.4-6.3"/>
	<path vector-effect="non-scaling-stroke" class="st8" d="M212.1,291.7c3.8-3.9,5.2-8.4,3.9-13.6c-3.7-15.7-23.5-21.6-35.7-11.2
		c-5.6,4.8-9,13.2-6,20.4c0.8,1.9,2.3,3.2,4.4,3.8"/>
	<path vector-effect="non-scaling-stroke" class="st7" d="M178.8,291.1c0.8,1.9,2,3,3.5,3.4c0.3,0.1,0.5,0.3,0.5,0.6l0,0.9"/>
	<path vector-effect="non-scaling-stroke" class="st8" d="M182.7,296.1c-15.2,9.4-15,30.4,1.6,38.2"/>
	<path vector-effect="non-scaling-stroke" class="st7" d="M184.3,334.3l-2.5,9.7"/>
	<path vector-effect="non-scaling-stroke" class="st9" d="M208.6,297.9c-8.5-4.7-17.2-5.4-26-1.9"/>
	<path vector-effect="non-scaling-stroke" class="st9" d="M587.9,297.8c-8.9-4.5-17.7-4.8-26.4-0.8"/>
	<path vector-effect="non-scaling-stroke" class="st9" d="M590.2,292.2c-2-0.5-3.2-1.4-3.8-2.7c-0.1-0.3-0.1-0.7,0.1-1
		c1.3-2.2,2.6-4.4,2.6-7c0-5.3-4.3-9.8-8.9-11.7c-7.3-3.1-14.8-0.7-19.6,5.7c-3.2,4.4-3.2,8.6,0,12.6c0.2,0.3,0.3,0.6,0.3,0.9
		c0,1.5-0.9,2.6-2.7,3.3"/>
	<path vector-effect="non-scaling-stroke" class="st9" d="M212.1,291.7c-2.5,0.1-3.9-0.8-4.5-2.8c-0.1-0.3,0-0.6,0.2-0.9
		c2-2.7,2.6-5.6,1.8-8.8c-5-20.5-40.1-8.2-27.1,9.3c0.2,0.3,0.2,0.6,0,0.8c-1,1.1-2.2,1.6-3.7,1.8"/>
	<path vector-effect="non-scaling-stroke" class="st9" d="M209.9,343.3l-5.4,0.5c-0.4,0-0.6,0.2-0.6,0.6v166.3
		c0,0.3,0.2,0.6,0.5,0.6c2.5,0.5,4.4,0.2,5.7-0.7"/>
	<path vector-effect="non-scaling-stroke" class="st9" d="M580.7,335.5c-5,0.9-10.1,0.5-15.2-1.1"/>
	<path vector-effect="non-scaling-stroke" class="st9" d="M556.9,523.6c3.8,0,8.7-0.3,12,1.4c8.2,4.4,6.2,18.3-1.5,21.6
		c-2.1,0.9-6.2,1.3-12.5,1.3c-47.2-0.1-94.7,0-142.5,0.2c-1.6,0-2.3,0.8-2,2.4c0.1,0.5,0.5,1.1,1.2,1.8c4.4,4.4,15.1,8.8,20.9,11.4
		c1.7,0.7,3.4,1.1,5.3,1.2c41.6,1,83.5,0.4,125.1,0.3"/>
	<path vector-effect="non-scaling-stroke" class="st9" d="M560.4,571.9l-125.8,0.1c-0.4,0-0.6,0.2-0.6,0.6l0,21.7
		c0,0.3,0.2,0.5,0.5,0.5l81.9,0"/>
	<path vector-effect="non-scaling-stroke" class="st9" d="M512.5,599.7l-77.9,0.1c-0.5,0-0.7,0.2-0.7,0.7l0.3,3.3
		c0,0.4,0.3,0.7,0.7,0.7l12.6,0.3"/>
	<path vector-effect="non-scaling-stroke" class="st10" d="M444.8,611.6l-10.6,0c-0.4,0-0.6,0.2-0.4,0.6c2.1,5.8,4.9,11.3,8.4,16.4
		c0.2,0.3,0.5,0.4,0.8,0.4l5.8-0.7"/>
	<path vector-effect="non-scaling-stroke" class="st11" d="M320.1,628.5c1.5,0.1,2.9-0.7,4.3-2.5c3.1-4.1,5.9-8.3,8.4-12.8
		c0.2-0.4,0.1-0.8-0.3-1c-0.1-0.1-0.2-0.1-0.3-0.1c-7.4-0.6-14.8-0.4-22.4,0.5c-4.8,0.6-18.5,3.9-20.6,8.8c-0.2,0.4,0,0.6,0.4,0.8
		l5.1,1.5"/>
	<path vector-effect="non-scaling-stroke" class="st9" d="M282.2,620.3c5.7-15.6,32.8-16.1,45.5-15.8c1.5,0,2.7-0.1,3.6-0.3
		c0.3-0.1,0.6-0.4,0.6-0.7l0.3-3c0-0.3-0.2-0.6-0.5-0.6c0,0,0,0-0.1,0l-94.9,0"/>
	<path vector-effect="non-scaling-stroke" class="st9" d="M235.8,594.9C235.8,594.9,235.8,594.9,235.8,594.9c0-0.1,0.1-0.1,0.2-0.1
		l95.3-0.1c0.4,0,0.6-0.2,0.6-0.6l0-21.3"/>
	<path vector-effect="non-scaling-stroke" class="st9" d="M369,545.5c-3.9,0.4-6.7,3.2-8.4,8.2"/>
	<path vector-effect="non-scaling-stroke" class="st9" d="M354.7,548.3c-2.3-0.1-4.4-0.2-6.3-0.2c-46.5-0.1-92.9-0.1-139.4-0.1
		c-5.2,0-8.8-0.5-10.7-1.4c-7.9-3.9-8.2-17.8,0-21.7c1.5-0.7,3.7-1.1,6.6-1c2.5,0,4.8,0,6.8,0"/>
	<path vector-effect="non-scaling-stroke" class="st9" d="M557.6,511.3c2.2,0.4,4.1,0.3,5.8-0.1c0.3-0.1,0.5-0.3,0.5-0.6l-0.1-166.3
		"/>
	<path vector-effect="non-scaling-stroke" class="st9" d="M208.2,332.4c-7.2,4-15.2,4.7-23.9,1.9"/>
	<path vector-effect="non-scaling-stroke" class="st9" d="M378.9,205.8c-42.6,3.1-75.7,35.9-85,76.4c-8,34.9,10.3,70.9,38.7,90.9
		c10.1,7.1,21.4,12,34,14.8"/>
	<path vector-effect="non-scaling-stroke" class="st12" d="M366.5,387.9c13.7,2.6,27,2.4,39.9-0.7c36-8.6,61.2-40.1,68.9-75.5
		c5.7-26.7-4-52.5-20.6-73.1c-16.4-20.4-41.3-33.5-67.8-33.9c-3.1-0.1-5.7,0.3-8,1.2"/>
	<path vector-effect="non-scaling-stroke" class="st13" d="M366.5,387.9c2.1-6.8,4.6-12.5,7.5-17.1"/>
	<path vector-effect="non-scaling-stroke" class="st12" d="M374,370.8l1.1-3.2"/>
	<path vector-effect="non-scaling-stroke" class="st13" d="M375.1,367.6c4,1.5,8.6,2,13.8,1.4c22.4-2.7,41.2-12.9,54.8-30.6
		c40.7-52.8-9.5-117-68.4-113.3"/>
	<path vector-effect="non-scaling-stroke" class="st12" d="M375.3,225c-0.5-0.6-1-1-1.5-1.1"/>
	<path vector-effect="non-scaling-stroke" class="st13" d="M373.8,223.9c-0.1-6.6,0.4-12.9,5-18.1"/>
	<path vector-effect="non-scaling-stroke" class="st9" d="M373.8,223.9c-4.6,0.4-8.7,1.2-12.3,2.6c-24.8,9.5-41.2,26.3-49.1,50.4
		c-7.8,24-1.8,48.8,15,67.6c12.7,14.2,28.2,22.9,46.6,26.1"/>
	<path vector-effect="non-scaling-stroke" class="st14" d="M372.5,363.3c1.5-2.7,3.4-4.3,5.7-4.8c18.5-3.5,33.6-12,45.3-25.5
		c38.5-44.3-2.4-94.3-48.9-102.6"/>
	<path vector-effect="non-scaling-stroke" class="st9" d="M375.3,225l-0.7,5.4"/>
	<path vector-effect="non-scaling-stroke" class="st11" d="M374.6,230.5c-26.2,4.3-47.5,23.6-55.8,48.4
		c-12.7,38.3,15.7,77.8,53.7,84.5"/>
	<path vector-effect="non-scaling-stroke" class="st9" d="M372.5,363.3c1.2,0.8,2,2.3,2.6,4.2"/>
	<path vector-effect="non-scaling-stroke" class="st3" d="M399,394.8l-31.5,0.2c-1.1,0-2,0.9-2,2.1l0,6.3c0,4.4,3.8,8,8.3,8
		c0,0,0,0,0,0l19-0.1c4.6,0,8.3-3.7,8.2-8.1l0-6.3C401,395.7,400.1,394.8,399,394.8C399,394.8,399,394.8,399,394.8"/>
	<path vector-effect="non-scaling-stroke" class="st9" d="M368.2,441.2c0-0.1,0-0.2,0-0.3c-0.1-0.2-0.3-0.3-0.5-0.2
		c-19.4,6.9-29.9,27.5-17.3,45.9c6.6,9.7,16.2,15.1,28.8,16.4"/>
	<path vector-effect="non-scaling-stroke" class="st3" d="M379.1,503.1c9.8,1.8,19.1,0.1,28.1-5.1c4.1-2.4,7-4.2,9.6-7.6
		c17.3-22.5,4.6-45.4-20.4-52.2c-0.6-0.2-1.1-0.7-1.1-1.4l0.2-19.7c0-0.7-0.6-1.3-1.3-1.3c0,0-0.1,0-0.1,0
		c-4.7,0.3-9.3,0.4-13.7,0.3c-1.8,0-5.1-0.6-7.6-0.2c-0.4,0.1-0.8,0.5-0.7,0.9c0.5,7.7,0.4,15.4-0.4,23.1c-0.1,0.6-0.6,1-1.2,1
		c0,0-0.1,0-0.1,0c-1-0.2-1.7,0-2.3,0.5"/>
	<path vector-effect="non-scaling-stroke" class="st2" d="M379.1,503.1c-4.4-6.6-7.6-13.4-9.5-20.5c-3.6-13.2-1.5-27.9-1.4-41.3"/>
	<path vector-effect="non-scaling-stroke" class="st9" d="M476.3,458.1c9.1-1.2,15.5-10,14.3-19.7c-1.2-9.8-9.6-16.7-18.7-15.6
		c-9.1,1.2-15.5,10-14.3,19.7C458.8,452.2,467.2,459.2,476.3,458.1"/>
	<path vector-effect="non-scaling-stroke" class="st9" d="M291.9,458c9.1,1.3,17.6-5.5,19-15.2c1.4-9.7-4.8-18.6-13.9-19.9
		c0,0,0,0,0,0c-9.1-1.3-17.6,5.5-19,15.2C276.5,447.8,282.8,456.7,291.9,458L291.9,458"/>
	<path vector-effect="non-scaling-stroke" class="st9" d="M308.6,542c0.2,0,0.4-0.2,0.4-0.4c0,0,0,0,0,0c0.1-14.4,0.3-28.8,0.3-43.3
		c0-2.2-0.4-4.5-0.7-6.7c-2.3-18.9-30.6-17.6-30.5,2.2c0,8.8,0.1,17.6,0.1,26.4c0,5.4-1.4,9.5-7.4,9.5c-30.3-0.1-52.1-0.1-65.4,0
		c-5.7,0-8.2,2.1-6.8,8c0.8,3.3,2.3,4.2,5.8,4.2C239,541.9,273.7,541.9,308.6,542"/>
	<path vector-effect="non-scaling-stroke" class="st9" d="M565.5,530.1c-0.3-0.2-0.6-0.3-0.9-0.3c-22.3-0.4-44.7-0.4-67.1-0.1
		c-5.4,0.1-7.3-3.1-7.2-8.2c0-8,0-15.9,0-23.9c0-4.8-0.5-8.3-1.4-10.5c-6.6-15.3-30.1-9.8-30,6.7c0,15.9,0,31.8,0,47.6
		c0,0.3,0.2,0.5,0.5,0.5c0,0,0,0,0,0c34.1,0.1,68.2,0,102.3-0.3c3,0,5-0.4,6-3.3C569,534.9,568.2,532.1,565.5,530.1"/>
	<path vector-effect="non-scaling-stroke" class="st15" d="M349.9,289.3c-7.2,27.5,22.9,54.7,49.4,43.1
		c21.6-9.5,33.7-34.7,20.3-56.3C400.5,245.6,358.5,257,349.9,289.3"/>
	<path vector-effect="non-scaling-stroke" class="st15" d="M355.6,291.6c-4.3,21.6,17,42.7,38.7,36c27.6-8.4,35.1-47.2,5.8-60.8
		C381.6,258.3,359.4,272.4,355.6,291.6"/>
	<path vector-effect="non-scaling-stroke" class="st14" d="M384.8,313.6c8.8,1.4,17.1-5.2,18.5-14.5c1.5-9.4-4.5-18.1-13.3-19.5h0
		c-8.8-1.4-17.1,5.2-18.5,14.5C370.1,303.6,376.1,312.3,384.8,313.6L384.8,313.6"/>
	<path vector-effect="non-scaling-stroke" class="st9" d="M211,316.1c0.6-8.2-6.3-15.4-15.4-16.1c0,0,0,0,0,0
		c-9.1-0.7-17,5.4-17.7,13.6c0,0,0,0,0,0c-0.6,8.2,6.3,15.4,15.4,16.1c0,0,0,0,0,0C202.5,330.3,210.4,324.3,211,316.1
		C211,316.1,211,316.1,211,316.1"/>
	<path vector-effect="non-scaling-stroke" class="st9" d="M590.8,315.9c0.4-8.1-6.5-15.1-15.5-15.6c0,0,0,0,0,0
		c-9-0.5-16.6,5.8-17,13.9c0,0,0,0,0,0c-0.4,8.1,6.5,15.1,15.5,15.6h0C582.8,330.2,590.4,324,590.8,315.9
		C590.8,315.9,590.8,315.9,590.8,315.9"/>
</g>
<path class="st16" d="M766.8,368.2v31.1c-0.3,21.5-3,43.4-7.9,65.8c-14.4,64.9-42.5,122.7-84.4,173.4
	c-56.9,68.8-145.2,111.4-232,123.8c-10.8,1.5-27.2,3-49.2,4.4h-20.7c-32.6-2-67.1-6.9-98.4-15.8c-18.1-5.2-35.8-11.4-53.2-18.7
	c-29.1-12.2-56.4-29.5-81.6-49.5c-18.5-14.7-35.1-30.3-49.6-48.3C42.8,576.2,10.8,502.8,3.6,427.7c-2.3-24.3-3.5-51-1.2-75.7
	c6.4-68.8,30.8-139.7,71.2-196.6c43.6-61.3,106.2-111,178-134.8c27.9-9.2,56.2-16,85.5-17.8c24.7-1.5,45-1.9,60.8-1.3
	c15.8,0.6,32.6,0.6,47.6,2.4c23.6,2.8,45.6,9,68.5,16.8c22,7.5,41.4,15.3,60.6,26.2c47.7,26.9,90.4,63.7,121.3,109.3
	c20.2,29.8,37.7,63.1,49,97.3C757.3,290.7,764.5,329,766.8,368.2z M581.4,193.3c-48-49.2-115.1-83.1-184.8-83.9
	c-30.7-0.4-61.5,0-90.8,9.4c-88.1,28.3-155.4,93.9-188.7,179.7c-18.7,48.2-21.5,98.6-12.8,149.4c8.1,47.7,32.4,93.1,65.1,128.3
	c4.4,4.7,9.1,9.5,13.9,14.3c38.8,38.3,85.4,62.5,139.8,72.6c10.1,1.9,19.2,3,27.4,3.3c20,0.8,41.2,0.8,63.8-0.2
	c8.7-0.4,16.3-1.3,24.4-2.9c32.1-6.4,62.4-17.4,91-33c5.8-3.2,11.5-6.7,16.9-10.6c23.7-16.9,46.8-38,64.3-61.4
	c37.3-50.1,60.6-115.3,54.8-178.2C659.3,310.1,630.8,244,581.4,193.3z"/>
<path class="st17" d="M581.4,193.3c49.4,50.7,77.9,116.8,84.3,186.8c5.8,62.9-17.5,128.1-54.8,178.2c-17.4,23.4-40.6,44.5-64.3,61.4
	c-5.4,3.9-11,7.4-16.9,10.6c-28.6,15.6-58.9,26.6-91,33c-8.1,1.6-15.7,2.6-24.4,2.9c-22.6,1-43.8,1.1-63.8,0.2
	c-8.2-0.3-17.3-1.4-27.4-3.3c-54.4-10.1-101-34.3-139.8-72.6c-4.9-4.8-9.5-9.5-13.9-14.3c-32.8-35.2-57-80.6-65.1-128.3
	c-8.7-50.8-5.9-101.2,12.8-149.4c33.3-85.8,100.6-151.4,188.7-179.7c29.3-9.4,60.1-9.8,90.8-9.4
	C466.3,110.2,533.4,144.1,581.4,193.3z M181.8,344l3.5,0c0.4,0,0.8,0.3,0.8,0.8c0,0,0,0,0,0c0,66.6,0,133.2-0.1,199.8
	c0,4.2,0.4,7.4,1.3,9.6c2.2,5.3,8.1,11.2,14.4,11.2c41.6,0,83.2,0,124.8,0c1.7,0,4.1-0.5,5.9-1.4c8.7-4.5,17-9,22.3-15.7
	c0.6,0.7,1.3,1.2,2.1,1.4c0.3,0.1,0.6,0.2,0.8,0.5l3,3.5c-0.4,0.6-0.6,1.3-0.6,2.1c0,0.4,0.2,0.6,0.6,0.7l15.1,2.1
	c0.4,0,0.7-0.2,0.8-0.6c0,0,0,0,0,0l1.4-11.1c0.1-0.5-0.2-0.8-0.7-0.8l-8.1-0.5c-0.4-2.2-0.7-4.1,0.1-6.4c3.1-8.6,5.5-17.4,7.2-26.3
	c0.1-0.3,0.1-0.7,0-1l-0.3-1.5c-0.1-0.3,0-0.5,0.3-0.6c3.6-1.5,10.3-0.5,14.5-0.5c0.4,0,0.8,0.3,0.8,0.7c1.1,7.9,3.6,15.5,5.6,23.4
	c1.5,5.8,2.8,9.9,4.1,12.4c5.1,10.3,11,15.2,22.8,19.8c2.5,1,4.5,3.7,1.4,5.5c-2.2,1.2-5.8,2.4-10.8,3.6c-3.7,0.8-6.4-0.1-9.6-1.6
	c-15.3-7.2-33.4-5.5-49.4-0.9c-5,1.4-8.1,5.3-13.4,1.1c-3.2-2.5-5.6-0.8-9.1-1.1c-0.1,0-0.2,0-0.3,0.1l-0.2,0.4
	c-0.1,0.2-0.3,0.3-0.5,0.2c-0.1,0-0.2,0-0.3,0c0.1-0.4-0.3-0.7-1.1-0.9c-0.3-0.1-0.8-0.1-1.3-0.1c-41.7-0.2-83.6-0.3-125.6-0.1
	c-0.3,0-0.6,0.3-0.6,0.6c0,0.2,0.1,0.3,0.2,0.5c8.3,7.7,17,15,26.2,21.9c1,0.8,3,0.9,6,0.3c-0.2,0.2-0.5,0.4-0.9,0.4
	c-0.2,0-0.2,0.1-0.1,0.2l2.2,4.2c0.1,0.8,0.9,1.6,2.4,2.5c13.4,8.3,27.3,14.9,41.7,19.9c0.3,0.1,0.6,0,0.8-0.2
	c0.3-0.4,0.4-0.9,0.4-1.6c1.7,3.6,4.1,5.1,7.4,4.3c0.3-0.1,0.7,0,1,0.1c1.3,0.6,2.6,0.7,4,0.3c0.2-0.1,0.3-0.2,0.1-0.4l-0.2-0.2
	c-0.2-0.2-0.2-0.3,0-0.5l0.3-0.3l25.4,4.9c-1.3,0.7-1.7,1.5-1.3,2.6c0.1,0.3,0.1,0.6-0.2,0.8l-1.2,0.9c-0.2,0.2-0.2,0.3,0,0.5
	c2.4,1.8,5.2,3,8.4,3.4c6.9,0.9,15.4,2.2,25.5,4c0.5,0.1,0.7-0.1,0.7-0.6v-0.5c0-0.4,0.2-0.5,0.5-0.5c6.3-0.1,12.5,1.1,18.9,1.9
	c3.8,0.5,7.6,1.3,11.3,2.6c1.5,0.5,3,0.7,4.4,0.6c10.9-1,21.7-2.3,32.5-4.1c4.1-0.7,7.9,0,12.2-1c4.1-1,8.3-1.9,12.5-2.8
	c0.3-0.1,0.6-0.2,0.8-0.4c0.8-0.7,1.8-1.2,2.9-1.3c0.2,0,0.4-0.1,0.5-0.2l3-3.4c0.2-0.3,0.2-0.5,0-0.7l-2.6-2.1
	c4.8-0.9,11.9-2.6,21.4-5.1c2.2-0.6,4-1.3,5.5-2.3c0.3-0.2,0.3-0.5,0.2-0.8c0,0,0,0-0.1-0.1c-6.1-6.6-22.3-8.4-30.9-8.4
	c-0.1-0.6,0.4-1.1,1.3-1.6c0.2-0.1,0.3-0.3,0.3-0.5l0-1.6c0-0.3,0.3-0.6,0.6-0.6c0,0,0,0,0.1,0c0.7,0.1,1.2-0.2,1.4-0.7
	c0.2-0.3,0.4-0.5,0.7-0.6l2.6-0.7c0,0,0.1-0.1,0-0.1c0,0,0,0-0.1-0.1l-4.2-0.1c12.2-0.7,29.5,3.2,35.6,15c0.2,0.3,0.4,0.4,0.7,0.3
	c1.7-0.4,3.2-0.8,4.3-1.3c12.7-5,24.8-11.1,36.3-18.4c0.5-0.3,0.4-0.4-0.1-0.4l-12-0.3l3.4,0c0.3,0,0.3-0.1,0-0.2
	c-0.1,0-0.3-0.1-0.4-0.1c-0.3,0-0.4-0.2-0.2-0.4c0.8-1.8,1.2-3.2,1.2-4.3c4.3-0.1,9-0.2,13.9-0.4c6.4-0.2,24.8-17.8,30-22.6l2.5-1.1
	c0.1-0.1,0.2-0.1,0.3-0.2l2.1-4.4c0-0.1,0-0.1,0-0.1c-0.1-0.1-0.2-0.1-0.3-0.2c-0.2-0.1-0.2-0.1,0-0.2l0.4,0c0,0,0.1,0,0.1-0.1
	c0,0,0-0.1-0.1-0.1l0,0l-2.1-0.1c11.2-0.6,19.4-8.2,19.5-19.7c0.3-47.2,0.3-109.7,0.1-187.6c0-3.8-0.4-9.4,0.2-14.2l5.3-0.4
	c0.3,0,0.5,0.1,0.5,0.4l0.3,197c0,0.2,0.1,0.3,0.3,0.3c0.1,0,0.2,0,0.3-0.1c28.2-34.5,43.2-73.2,50-116.9
	c5.4-34.8-2.3-71.5-13.4-105.2c-11.4-34.7-30.5-64.1-53.7-91.1c-34.4-40.1-81.2-73.5-133.1-85.1c-84.3-18.7-167.9,7.5-229.7,67
	c-27.5,26.5-50.1,55.9-63.9,90.6c-12.4,31.3-21.5,67.3-19.6,101.2c3.1,53.7,18.8,103.2,52.2,145.7c0.3,0.4,0.5,0.4,0.5-0.2
	l0.3-202.5c0-0.3,0.3-0.6,0.6-0.6H181.8z"/>
<path class="st18" d="M582.9,343.9l-0.9-4c-0.1-0.3-0.2-0.6-0.4-0.9c-0.9-1-1.2-2.2-0.9-3.5c18.8-4.7,23.5-26.7,7.2-37.7l0.5-1.6
	c0.1-0.3,0.3-0.6,0.6-0.7c1.8-1.1,2.2-2.2,1.3-3.3c2.9,0.4,4.6-6,4.7-8.3c1.9-25.9-36.5-30.2-42.4-5.4c-1.4,5.9-0.3,11.5,5.7,13.8
	c0.5,2.6,3.2,2,3.3,4.7c-13.8,10.3-13.7,31.3,4,37.4l-1.7,9.9l-5.7,0.1c-0.4,0-0.6,0.2-0.6,0.6l0.1,166.4l-0.7,12.3l-56.6,0.1
	c-1.7,0-3-1.4-3.1-3c0-10.5,1.6-27.6-1.5-35.9c-2.6-7-8.3-11.1-17.1-12.4c-0.4-0.1-0.6-0.3-0.6-0.7v-5.5c0-0.4,0.2-0.7,0.6-0.8
	c12.9-4.1,19.4-12.4,19.3-25c0-16.6-18.2-30.5-33.8-22.3c-21.5,11.3-16.4,41.9,6.9,47.2c0.4,0.1,0.5,0.3,0.5,0.7v5.5
	c0,0.4-0.3,0.8-0.7,0.9c-8.9,1.6-14.6,6.1-17.3,13.4c-1,2.7-1.5,7.2-1.5,13.6c0,14.1,0,28.2,0,42.3c0,0.3-0.2,0.5-0.5,0.5h-45.4
	c-0.4,0-0.6-0.2-0.7-0.5l-7.7-30.5c-0.1-0.3,0.1-0.7,0.4-0.8c26.7-7.7,45.6-37.8,25.4-62.7c-5.5-6.8-12.8-11.5-22-14.1
	c-0.3-0.1-0.5-0.3-0.5-0.6v-16.5c0-0.4,0.2-0.7,0.5-0.9c7.5-4.3,5.7-13,5.1-19.7c0-0.4,0.1-0.6,0.5-0.7c38.9-10.8,67.7-41.4,75.1-81
	c4.6-24.4,0.1-47.1-13.4-68.1c-48.9-75.9-151.5-57.8-179.9,24.8C270.8,324,307.6,380.5,360,394.7c0.3,0.1,0.5,0.3,0.5,0.7
	c-0.8,8-2.4,16.7,6.7,20.7c0.2,0.1,0.3,0.2,0.3,0.4l0.3,15.8c0,0.3-0.2,0.6-0.4,0.6c-17.9,5.5-32.9,21.9-30.4,41.2
	c2.3,18.3,17.3,31.3,34.5,36c0.3,0.1,0.4,0.3,0.3,0.6c-2.5,10-5.6,23.8-10.8,31c-0.2,0.2-0.4,0.4-0.7,0.4l-43.2-0.2
	c-0.3,0-0.5-0.2-0.5-0.5l0,0c0.2-24.1,0.1-39.7-0.2-46.8c-0.6-12.8-7.1-20.4-19.5-22.7c-0.3-0.1-0.4-0.2-0.4-0.5l0.4-4.9
	c0-0.3,0.2-0.5,0.5-0.6c8.2-2.1,14.1-6.5,17.8-13.1c16.8-30.5-29.9-53.2-42.2-20.9c-5.5,14.3,2.5,29,16.8,33.6
	c0.4,0.1,0.7,0.5,0.7,0.9l0.2,4.8c0,0.4-0.2,0.8-0.6,0.8c-8.5,1.8-14.1,6.1-16.6,13c-1,2.7-1.5,7.6-1.5,14.6c0,7.1,0,14.2,0,21.5
	c0,1.3-1,2.3-2.3,2.3l-57.6,0.5l-1.7-13.1l-0.2-167.3c0.8-3.3,0.2-6.9-1.7-10.8c12.9-8.6,13.1-25.5,0.5-34.5c0.1-2.9,1.2-5,3.4-6.3
	c3.8-3.9,5.2-8.4,3.9-13.6c-3.7-15.7-23.5-21.6-35.7-11.2c-5.6,4.8-9,13.2-6,20.4c0.8,1.9,2.3,3.2,4.4,3.8c0.8,1.9,2,3,3.5,3.4
	c0.3,0.1,0.5,0.3,0.5,0.6l0,0.9c-15.2,9.4-15,30.4,1.6,38.2l-2.5,9.7h-1.9c-0.3,0-0.6,0.3-0.6,0.6l-0.3,202.5c0,0.5-0.2,0.6-0.5,0.2
	c-33.5-42.5-49.2-92-52.2-145.7c-1.9-33.9,7.2-69.9,19.6-101.2c13.8-34.8,36.4-64.1,63.9-90.6c61.8-59.5,145.4-85.7,229.7-67
	c51.9,11.5,98.6,45,133.1,85.1c23.2,27,42.3,56.5,53.7,91.1c11.1,33.7,18.8,70.4,13.4,105.2c-6.8,43.7-21.7,82.5-50,116.9
	c-0.1,0.1-0.3,0.2-0.5,0.1c-0.1-0.1-0.1-0.2-0.1-0.3l-0.3-197c0-0.3-0.2-0.5-0.5-0.4L582.9,343.9z"/>
<path class="st19" d="M556.9,523.6c3.8,0,8.7-0.3,12,1.4c8.2,4.4,6.2,18.3-1.5,21.6c-2.1,0.9-6.2,1.3-12.5,1.3
	c-47.2-0.1-94.7,0-142.5,0.2c-1.6,0-2.3,0.8-2,2.4c0.1,0.5,0.5,1.1,1.2,1.8c4.4,4.4,15.1,8.8,20.9,11.4c1.7,0.7,3.4,1.1,5.3,1.2
	c41.6,1,83.5,0.4,125.1,0.3l2.1,0.1c0,0,0.1,0,0.1,0.1c0,0,0,0.1-0.1,0.1l0,0l-0.4,0c-0.2,0-0.2,0.1,0,0.2c0.1,0,0.2,0.1,0.3,0.2
	c0.1,0,0.1,0.1,0,0.1l-2.1,4.4c-0.1,0.1-0.1,0.2-0.3,0.2l-2.5,1.1l-125.8,0.1c-0.4,0-0.6,0.2-0.6,0.6l0,21.7c0,0.3,0.2,0.5,0.5,0.5
	l81.9,0c0,1.1-0.4,2.5-1.2,4.3c-0.1,0.3,0,0.4,0.2,0.4c0.2,0,0.3,0,0.4,0.1c0.3,0.1,0.3,0.2,0,0.2l-3.4,0l-77.9,0.1
	c-0.5,0-0.7,0.2-0.7,0.7l0.3,3.3c0,0.4,0.3,0.7,0.7,0.7l12.6,0.3l4.2,0.1c0,0,0.1,0.1,0.1,0.1c0,0,0,0.1-0.1,0.1l-2.6,0.7
	c-0.3,0.1-0.6,0.3-0.7,0.6c-0.3,0.5-0.7,0.8-1.4,0.7c-0.3,0-0.6,0.2-0.6,0.5c0,0,0,0,0,0.1l0,1.6c0,0.2-0.1,0.4-0.3,0.5
	c-1,0.5-1.4,1-1.3,1.6l-10.6,0c-0.4,0-0.6,0.2-0.4,0.6c2.1,5.8,4.9,11.3,8.4,16.4c0.2,0.3,0.5,0.4,0.8,0.4l5.8-0.7l2.6,2.1
	c0.3,0.2,0.3,0.5,0,0.7l-3,3.4c-0.1,0.1-0.3,0.2-0.5,0.2c-1.1,0.1-2.1,0.6-2.9,1.3c-0.2,0.2-0.5,0.3-0.8,0.4
	c-4.2,0.9-8.3,1.8-12.5,2.8c-4.3,1-8.1,0.3-12.2,1c-10.8,1.8-21.6,3.2-32.5,4.1c-1.4,0.1-2.9-0.1-4.4-0.6c-3.7-1.3-7.4-2.2-11.3-2.6
	c-6.4-0.8-12.6-2-18.9-1.9c-0.4,0-0.5,0.2-0.5,0.5v0.5c0,0.5-0.2,0.7-0.7,0.6c-10.1-1.8-18.6-3.1-25.5-4c-3.2-0.4-6-1.6-8.4-3.4
	c-0.2-0.2-0.2-0.3,0-0.5l1.2-0.9c0.3-0.2,0.3-0.5,0.2-0.8c-0.4-1,0-1.9,1.3-2.6c1.5,0.1,2.9-0.7,4.3-2.5c3.1-4.1,5.9-8.3,8.4-12.8
	c0.2-0.4,0.1-0.8-0.3-1c-0.1-0.1-0.2-0.1-0.3-0.1c-7.4-0.6-14.8-0.4-22.4,0.5c-4.8,0.6-18.5,3.9-20.6,8.8c-0.2,0.4,0,0.6,0.4,0.8
	l5.1,1.5l-0.3,0.3c-0.2,0.2-0.2,0.3,0,0.5l0.2,0.2c0.2,0.2,0.1,0.3-0.1,0.4c-1.4,0.4-2.7,0.3-4-0.3c-0.3-0.1-0.6-0.2-1-0.1
	c-3.2,0.8-5.7-0.7-7.4-4.3c5.7-15.6,32.8-16.1,45.5-15.8c1.5,0,2.7-0.1,3.6-0.3c0.3-0.1,0.6-0.4,0.6-0.7l0.3-3
	c0-0.3-0.2-0.6-0.5-0.6c0,0,0,0-0.1,0l-94.9,0l-2.2-4.2c-0.1-0.2,0-0.3,0.1-0.2c0.4,0,0.7-0.1,0.9-0.4c0,0,0-0.1,0-0.1
	c0,0,0.1-0.1,0.2-0.1l95.3-0.1c0.4,0,0.6-0.2,0.6-0.6l0-21.3c0.1,0,0.2,0,0.3,0c0.2,0.1,0.4,0,0.5-0.2l0.2-0.4
	c0.1-0.1,0.2-0.1,0.3-0.1c3.5,0.2,5.8-1.5,9.1,1.1c5.3,4.2,8.5,0.3,13.4-1.1c16-4.6,34.1-6.3,49.4,0.9c3.2,1.5,5.9,2.5,9.6,1.6
	c5-1.1,8.6-2.3,10.8-3.6c3.1-1.8,1.1-4.5-1.4-5.5c-11.8-4.6-17.6-9.5-22.8-19.8c-1.2-2.5-2.6-6.6-4.1-12.4c-2-7.8-4.5-15.4-5.6-23.4
	c-0.1-0.4-0.4-0.7-0.8-0.7c-4.2,0-10.9-1-14.5,0.5c-0.3,0.1-0.4,0.3-0.3,0.6l0.3,1.5c0.1,0.3,0,0.7,0,1c-1.7,9-4.1,17.7-7.2,26.3
	c-0.8,2.2-0.5,4.2-0.1,6.4c-3.9,0.4-6.7,3.2-8.4,8.2l-3-3.5c-0.2-0.2-0.5-0.4-0.8-0.5c-0.8-0.2-1.5-0.7-2.1-1.4
	c-2.3-0.1-4.4-0.2-6.3-0.2c-46.5-0.1-92.9-0.1-139.4-0.1c-5.2,0-8.8-0.5-10.7-1.4c-7.9-3.9-8.2-17.8,0-21.7c1.5-0.7,3.7-1.1,6.6-1
	c2.5,0,4.8,0,6.8,0l57.6-0.5c1.3,0,2.3-1,2.3-2.3c0-7.2,0.1-14.4,0-21.5c0-7,0.5-11.9,1.5-14.6c2.5-6.9,8.1-11.2,16.6-13
	c0.4-0.1,0.7-0.4,0.6-0.8l-0.2-4.8c0-0.4-0.3-0.8-0.7-0.9c-14.3-4.6-22.3-19.2-16.8-33.6c12.3-32.3,59.1-9.6,42.2,20.9
	c-3.7,6.7-9.6,11.1-17.8,13.1c-0.3,0.1-0.5,0.3-0.5,0.6l-0.4,4.9c0,0.3,0.1,0.5,0.4,0.5c12.4,2.3,18.9,9.9,19.5,22.7
	c0.3,7.1,0.4,22.7,0.2,46.8c0,0.3,0.2,0.5,0.5,0.5c0,0,0,0,0,0l43.2,0.2c0.3,0,0.6-0.1,0.7-0.4c5.3-7.2,8.3-21,10.8-31
	c0.1-0.3,0-0.5-0.3-0.6c-17.3-4.7-32.2-17.8-34.5-36c-2.5-19.2,12.5-35.7,30.4-41.2c0.3-0.1,0.5-0.3,0.4-0.6l-0.3-15.8
	c0-0.2-0.1-0.3-0.3-0.4c-9-4-7.4-12.7-6.7-20.7c0-0.3-0.1-0.6-0.5-0.7c-52.4-14.2-89.2-70.7-70.8-124.1
	c28.4-82.5,131.1-100.6,179.9-24.8c13.5,21,18,43.8,13.4,68.1c-7.5,39.7-36.2,70.2-75.1,81c-0.4,0.1-0.5,0.3-0.5,0.7
	c0.6,6.7,2.4,15.4-5.1,19.7c-0.3,0.2-0.5,0.5-0.5,0.9v16.5c0,0.3,0.2,0.6,0.5,0.6c9.2,2.6,16.5,7.3,22,14.1
	c20.2,25,1.3,55-25.4,62.7c-0.3,0.1-0.5,0.4-0.4,0.8l7.7,30.5c0.1,0.3,0.3,0.5,0.7,0.5h45.4c0.3,0,0.5-0.2,0.5-0.5
	c0-14.1,0-28.2,0-42.3c0-6.3,0.5-10.8,1.5-13.6c2.6-7.3,8.4-11.8,17.3-13.4c0.4-0.1,0.7-0.4,0.7-0.9v-5.5c0-0.4-0.2-0.6-0.5-0.7
	c-23.3-5.3-28.4-35.9-6.9-47.2c15.6-8.2,33.8,5.7,33.8,22.3c0,12.6-6.4,20.9-19.3,25c-0.4,0.1-0.6,0.4-0.6,0.8v5.5
	c0,0.4,0.2,0.6,0.6,0.7c8.8,1.3,14.5,5.4,17.1,12.4c3.1,8.4,1.5,25.5,1.5,35.9c0,1.7,1.4,3,3.1,3L556.9,523.6z M378.9,205.8
	c-42.6,3.1-75.7,35.9-85,76.4c-8,34.9,10.3,70.9,38.7,90.9c10.1,7.1,21.4,12,34,14.8c13.7,2.6,27,2.4,39.9-0.7
	c36-8.6,61.2-40.1,68.9-75.5c5.7-26.7-4-52.5-20.6-73.1c-16.4-20.4-41.3-33.5-67.8-33.9C383.8,204.6,381.1,205,378.9,205.8z
	 M399,394.8l-31.5,0.2c-1.1,0-2,0.9-2,2.1l0,6.3c0,4.4,3.8,8,8.3,8c0,0,0,0,0,0l19-0.1c4.6,0,8.3-3.7,8.2-8.1l0-6.3
	C401,395.7,400.1,394.8,399,394.8C399,394.8,399,394.8,399,394.8z M368.2,441.2c0-0.1,0-0.2,0-0.3c-0.1-0.2-0.3-0.3-0.5-0.2
	c-19.4,6.9-29.9,27.5-17.3,45.9c6.6,9.7,16.2,15.1,28.8,16.4c9.8,1.8,19.1,0.1,28.1-5.1c4.1-2.4,7-4.2,9.6-7.6
	c17.3-22.5,4.6-45.4-20.4-52.2c-0.6-0.2-1.1-0.7-1.1-1.4l0.2-19.7c0-0.7-0.6-1.3-1.3-1.3c0,0-0.1,0-0.1,0c-4.7,0.3-9.3,0.4-13.7,0.3
	c-1.8,0-5.1-0.6-7.6-0.2c-0.4,0.1-0.8,0.5-0.7,0.9c0.5,7.7,0.4,15.4-0.4,23.1c-0.1,0.6-0.6,1-1.2,1c0,0-0.1,0-0.1,0
	C369.6,440.5,368.8,440.7,368.2,441.2z M476.3,458.1c9.1-1.2,15.5-10,14.3-19.7c-1.2-9.8-9.6-16.7-18.7-15.6
	c-9.1,1.2-15.5,10-14.3,19.7C458.8,452.2,467.2,459.2,476.3,458.1z M291.9,458c9.1,1.3,17.6-5.5,19-15.2c1.4-9.7-4.8-18.6-13.9-19.9
	c0,0,0,0,0,0c-9.1-1.3-17.6,5.5-19,15.2C276.5,447.8,282.8,456.7,291.9,458L291.9,458z M308.6,542c0.2,0,0.4-0.2,0.4-0.4
	c0,0,0,0,0,0c0.1-14.4,0.3-28.8,0.3-43.3c0-2.2-0.4-4.5-0.7-6.7c-2.3-18.9-30.6-17.6-30.5,2.2c0,8.8,0.1,17.6,0.1,26.4
	c0,5.4-1.4,9.5-7.4,9.5c-30.3-0.1-52.1-0.1-65.4,0c-5.7,0-8.2,2.1-6.8,8c0.8,3.3,2.3,4.2,5.8,4.2C239,541.9,273.7,541.9,308.6,542z
	 M565.5,530.1c-0.3-0.2-0.6-0.3-0.9-0.3c-22.3-0.4-44.7-0.4-67.1-0.1c-5.4,0.1-7.3-3.1-7.2-8.2c0-8,0-15.9,0-23.9
	c0-4.8-0.5-8.3-1.4-10.5c-6.6-15.3-30.1-9.8-30,6.7c0,15.9,0,31.8,0,47.6c0,0.3,0.2,0.5,0.5,0.5c0,0,0,0,0,0
	c34.1,0.1,68.2,0,102.3-0.3c3,0,5-0.4,6-3.3C569,534.9,568.2,532.1,565.5,530.1z"/>
<path class="st20" d="M366.5,387.9c2.1-6.8,4.6-12.5,7.5-17.1l1.1-3.2c4,1.5,8.6,2,13.8,1.4c22.4-2.7,41.2-12.9,54.8-30.6
	c40.7-52.8-9.5-117-68.4-113.3c-0.5-0.6-1-1-1.5-1.1c-0.1-6.6,0.4-12.9,5-18.1c2.3-0.8,4.9-1.2,8-1.2c26.5,0.4,51.4,13.6,67.8,33.9
	c16.6,20.6,26.3,46.5,20.6,73.1c-7.6,35.4-32.9,66.9-68.9,75.5C393.5,390.3,380.2,390.5,366.5,387.9z"/>
<path class="st21" d="M378.9,205.8c-4.6,5.2-5.2,11.6-5,18.1c-4.6,0.4-8.7,1.2-12.3,2.6c-24.8,9.5-41.2,26.3-49.1,50.4
	c-7.8,24-1.8,48.8,15,67.6c12.7,14.2,28.2,22.9,46.6,26.1c-2.9,4.6-5.4,10.3-7.5,17.1c-12.6-2.8-23.9-7.7-34-14.8
	c-28.4-20-46.7-56-38.7-90.9C303.1,241.8,336.3,208.9,378.9,205.8z"/>
<path class="st19" d="M373.8,223.9c0.5,0.1,0.9,0.4,1.5,1.1l-0.7,5.4c-26.2,4.3-47.5,23.6-55.8,48.4c-12.7,38.3,15.7,77.8,53.7,84.5
	c1.2,0.8,2,2.3,2.6,4.2l-1.1,3.2c-18.4-3.2-33.9-11.9-46.6-26.1c-16.8-18.8-22.8-43.6-15-67.6c7.9-24.2,24.2-41,49.1-50.4
	C365.1,225.2,369.2,224.3,373.8,223.9z"/>
<path class="st21" d="M375.1,367.6c-0.5-2-1.4-3.4-2.6-4.2c1.5-2.7,3.4-4.3,5.7-4.8c18.5-3.5,33.6-12,45.3-25.5
	c38.5-44.3-2.4-94.3-48.9-102.6l0.7-5.4c58.9-3.7,109.1,60.5,68.4,113.3c-13.6,17.7-32.4,27.9-54.8,30.6
	C383.7,369.6,379.1,369.1,375.1,367.6z"/>
<path class="st16" d="M399.3,332.5c-26.4,11.6-56.6-15.7-49.4-43.1c8.5-32.3,50.6-43.8,69.7-13.1C433,297.7,420.9,323,399.3,332.5z
	 M355.6,291.6c-4.3,21.6,17,42.7,38.7,36c27.6-8.4,35.1-47.2,5.8-60.8C381.6,258.3,359.4,272.4,355.6,291.6z"/>
<path class="st19" d="M212.1,291.7c-2.5,0.1-3.9-0.8-4.5-2.8c-0.1-0.3,0-0.6,0.2-0.9c2-2.7,2.6-5.6,1.8-8.8
	c-5-20.5-40.1-8.2-27.1,9.3c0.2,0.3,0.2,0.6,0,0.8c-1,1.1-2.2,1.6-3.7,1.8c-2.1-0.6-3.6-1.9-4.4-3.8c-3-7.2,0.4-15.6,6-20.4
	c12.2-10.5,31.9-4.5,35.7,11.2C217.2,283.2,215.9,287.8,212.1,291.7z"/>
<path class="st19" d="M590.2,292.2c-2-0.5-3.2-1.4-3.8-2.7c-0.1-0.3-0.1-0.7,0.1-1c1.3-2.2,2.6-4.4,2.6-7c0-5.3-4.3-9.8-8.9-11.7
	c-7.3-3.1-14.8-0.7-19.6,5.7c-3.2,4.4-3.2,8.6,0,12.6c0.2,0.3,0.3,0.6,0.3,0.9c0,1.5-0.9,2.6-2.7,3.3c-6-2.3-7.1-7.9-5.7-13.8
	c5.9-24.8,44.3-20.5,42.4,5.4C594.8,286.1,593.2,292.5,590.2,292.2z"/>
<path class="st22" d="M394.2,327.6c-21.7,6.6-43-14.4-38.7-36c3.8-19.1,26.1-33.3,44.4-24.8C429.3,280.4,421.8,319.2,394.2,327.6z
	 M384.8,313.6c8.8,1.4,17.1-5.2,18.5-14.5c1.5-9.4-4.5-18.1-13.3-19.5h0c-8.8-1.4-17.1,5.2-18.5,14.5
	C370.1,303.6,376.1,312.3,384.8,313.6L384.8,313.6z"/>
<path class="st21" d="M212.1,291.7c-2.2,1.3-3.4,3.4-3.4,6.3c-8.5-4.7-17.2-5.4-26-1.9l0-0.9c0-0.3-0.1-0.5-0.5-0.6
	c-1.5-0.4-2.6-1.6-3.5-3.4c1.5-0.1,2.7-0.7,3.7-1.8c0.2-0.3,0.3-0.6,0-0.8c-13-17.5,22.1-29.8,27.1-9.3c0.8,3.2,0.2,6.1-1.8,8.8
	c-0.2,0.3-0.3,0.6-0.2,0.9C208.1,290.8,209.6,291.8,212.1,291.7z"/>
<path class="st21" d="M590.2,292.2c0.9,1.1,0.5,2.1-1.3,3.3c-0.3,0.2-0.5,0.4-0.6,0.7l-0.5,1.6c-8.9-4.5-17.7-4.8-26.4-0.8
	c-0.1-2.7-2.7-2.1-3.3-4.7c1.8-0.7,2.7-1.8,2.7-3.3c0-0.3-0.1-0.7-0.3-0.9c-3.2-4-3.2-8.2,0-12.6c4.7-6.4,12.2-8.8,19.6-5.7
	c4.6,2,8.8,6.4,8.9,11.7c0,2.6-1.3,4.8-2.6,7c-0.2,0.3-0.2,0.7-0.1,1C587,290.8,588.3,291.7,590.2,292.2z"/>
<ellipse transform="matrix(0.153 -0.9882 0.9882 0.153 35.0515 634.1489)" class="st21" cx="387.5" cy="296.6" rx="17.2" ry="16.1"/>
<path class="st19" d="M208.6,297.9c12.6,9,12.4,25.9-0.5,34.5c-7.2,4-15.2,4.7-23.9,1.9c-16.6-7.9-16.8-28.9-1.6-38.2
	C191.5,292.6,200.1,293.2,208.6,297.9z M211,316.1c0.6-8.2-6.3-15.4-15.4-16.1c0,0,0,0,0,0c-9.1-0.7-17,5.4-17.7,13.6c0,0,0,0,0,0
	c-0.6,8.2,6.3,15.4,15.4,16.1c0,0,0,0,0,0C202.5,330.3,210.4,324.3,211,316.1C211,316.1,211,316.1,211,316.1z"/>
<path class="st19" d="M587.9,297.8c16.3,11,11.7,32.9-7.2,37.7c-5,0.9-10.1,0.5-15.2-1.1c-17.7-6.1-17.9-27.1-4-37.4
	C570.1,293,578.9,293.3,587.9,297.8z M590.8,315.9c0.4-8.1-6.5-15.1-15.5-15.6c0,0,0,0,0,0c-9-0.5-16.6,5.8-17,13.9c0,0,0,0,0,0
	c-0.4,8.1,6.5,15.1,15.5,15.6h0C582.8,330.2,590.4,324,590.8,315.9C590.8,315.9,590.8,315.9,590.8,315.9z"/>
<ellipse transform="matrix(7.497873e-02 -0.9972 0.9972 7.497873e-02 -134.0688 485.1638)" class="st21" cx="194.5" cy="314.8" rx="14.9" ry="16.6"/>
<ellipse transform="matrix(5.059294e-02 -0.9987 0.9987 5.059294e-02 230.8018 872.9002)" class="st21" cx="574.5" cy="315.1" rx="14.7" ry="16.3"/>
<path class="st21" d="M208.2,332.4c1.9,3.9,2.5,7.5,1.7,10.8l-5.4,0.5c-0.4,0-0.6,0.2-0.6,0.6v166.3c0,0.3,0.2,0.6,0.5,0.6
	c2.5,0.5,4.4,0.2,5.7-0.7l1.7,13.1c-2,0.1-4.3,0.1-6.8,0c-2.9,0-5.1,0.3-6.6,1c-8.1,3.9-7.9,17.8,0,21.7c1.9,1,5.5,1.4,10.7,1.4
	c46.5,0,92.9,0,139.4,0.1c1.9,0,4,0.1,6.3,0.2c-5.3,6.7-13.6,11.2-22.3,15.7c-1.8,0.9-4.2,1.4-5.9,1.4c-41.6,0-83.2,0-124.8,0
	c-6.3,0-12.2-5.9-14.4-11.2c-0.9-2.2-1.3-5.4-1.3-9.6c0.1-66.5,0.2-133.1,0.1-199.8c0-0.4-0.3-0.8-0.8-0.8c0,0,0,0,0,0l-3.5,0
	l2.5-9.7C193,337.1,200.9,336.5,208.2,332.4z"/>
<path class="st21" d="M565.5,334.4c5.1,1.6,10.2,1.9,15.2,1.1c-0.3,1.4,0,2.5,0.9,3.5c0.2,0.2,0.4,0.5,0.4,0.9l0.9,4
	c-0.6,4.8-0.2,10.5-0.2,14.2c0.2,77.9,0.1,140.4-0.1,187.6c-0.1,11.4-8.2,19.1-19.5,19.7c-41.7,0.1-83.5,0.7-125.1-0.3
	c-1.9,0-3.7-0.4-5.3-1.2c-5.8-2.6-16.5-7-20.9-11.4c-0.7-0.7-1.2-1.3-1.2-1.8c-0.3-1.6,0.4-2.4,2-2.4c47.8-0.3,95.3-0.4,142.5-0.2
	c6.2,0,10.4-0.4,12.5-1.3c7.7-3.3,9.7-17.2,1.5-21.6c-3.3-1.7-8.2-1.4-12-1.4l0.7-12.3c2.2,0.4,4.1,0.3,5.8-0.1
	c0.3-0.1,0.5-0.3,0.5-0.6l-0.1-166.3L565.5,334.4z"/>
<path class="st19" d="M209.9,343.3l0.2,167.3c-1.3,1-3.2,1.2-5.7,0.7c-0.3-0.1-0.5-0.3-0.5-0.6V344.5c0-0.4,0.2-0.6,0.6-0.6
	L209.9,343.3z"/>
<path class="st19" d="M563.8,344.3l0.1,166.3c0,0.3-0.2,0.5-0.5,0.6c-1.7,0.4-3.6,0.5-5.8,0.1l-0.1-166.4c0-0.4,0.2-0.6,0.6-0.6
	L563.8,344.3z"/>
<path class="st17" d="M399,394.8c1.1,0,2.1,0.9,2.1,2c0,0,0,0,0,0l0,6.3c0,4.4-3.7,8.1-8.2,8.1l-19,0.1c-4.6,0-8.3-3.5-8.4-8
	c0,0,0,0,0,0l0-6.3c0-1.1,0.9-2.1,2-2.1L399,394.8z"/>
<path class="st17" d="M379.1,503.1c-4.4-6.6-7.6-13.4-9.5-20.5c-3.6-13.2-1.5-27.9-1.4-41.3c0.6-0.5,1.4-0.7,2.3-0.5
	c0.6,0.1,1.1-0.3,1.3-0.8c0,0,0-0.1,0-0.1c0.8-7.7,0.9-15.4,0.4-23.1c0-0.4,0.3-0.8,0.7-0.9c2.6-0.4,5.8,0.1,7.6,0.2
	c4.5,0.1,9,0,13.7-0.3c0.7,0,1.3,0.5,1.4,1.2c0,0,0,0.1,0,0.1l-0.2,19.7c0,0.6,0.4,1.2,1.1,1.4c25,6.8,37.6,29.7,20.4,52.2
	c-2.6,3.4-5.5,5.2-9.6,7.6C398.3,503.2,388.9,504.9,379.1,503.1z"/>
<ellipse transform="matrix(0.9921 -0.1253 0.1253 0.9921 -51.4577 62.8932)" class="st21" cx="474.1" cy="440.4" rx="16.6" ry="17.8"/>
<ellipse transform="matrix(0.1426 -0.9898 0.9898 0.1426 -183.5281 668.9994)" class="st21" cx="294.4" cy="440.4" rx="17.7" ry="16.6"/>
<path class="st21" d="M368.2,441.2c-0.1,13.5-2.2,28.2,1.4,41.3c2,7.1,5.1,13.9,9.5,20.5c-12.6-1.3-22.2-6.8-28.8-16.4
	c-12.6-18.5-2.1-39,17.3-45.9c0.2-0.1,0.4,0,0.5,0.2C368.2,441,368.2,441.1,368.2,441.2z"/>
<path class="st21" d="M308.6,542c-34.9-0.1-69.6-0.1-104.1,0c-3.5,0-5-0.9-5.8-4.2c-1.4-5.9,1.1-7.9,6.8-8c13.2-0.1,35-0.1,65.4,0
	c6,0,7.4-4.1,7.4-9.5c-0.1-8.8-0.1-17.6-0.1-26.4c-0.1-19.8,28.2-21.1,30.5-2.2c0.3,2.2,0.7,4.5,0.7,6.7
	c-0.1,14.4-0.2,28.9-0.3,43.3C309,541.8,308.8,542,308.6,542C308.6,542,308.6,542,308.6,542z"/>
<path class="st21" d="M565.5,530.1c2.7,2,3.4,4.7,2.2,8.2c-1,2.9-3,3.3-6,3.3c-34.1,0.3-68.2,0.4-102.3,0.3c-0.3,0-0.5-0.2-0.5-0.5
	l0,0c0-15.8,0-31.7,0-47.6c0-16.4,23.4-21.9,30-6.7c1,2.2,1.4,5.7,1.4,10.5c0,8,0,15.9,0,23.9c0,5.1,1.8,8.3,7.2,8.2
	c22.4-0.3,44.8-0.3,67.1,0.1C565,529.8,565.3,529.9,565.5,530.1z"/>
<path class="st21" d="M369,545.5l8.1,0.5c0.5,0,0.8,0.3,0.7,0.8l-1.4,11.1c0,0.4-0.4,0.7-0.8,0.6c0,0,0,0,0,0l-15.1-2.1
	c-0.4-0.1-0.6-0.3-0.6-0.7c0-0.8,0.2-1.5,0.6-2.1C362.3,548.7,365.1,546,369,545.5z"/>
<path class="st21" d="M332,572.8l0,21.3c0,0.4-0.2,0.6-0.6,0.6l-95.3,0.1c-0.1,0-0.2,0-0.2,0.1c0,0,0,0.1,0,0.1c-3,0.5-5,0.4-6-0.3
	c-9.2-6.9-17.9-14.1-26.2-21.9c-0.3-0.2-0.3-0.6,0-0.9c0.1-0.1,0.3-0.2,0.5-0.2c42-0.2,83.9-0.1,125.6,0.1c0.5,0,1,0,1.3,0.1
	C331.7,572.1,332,572.4,332,572.8z"/>
<path class="st21" d="M560.4,571.9c-5.3,4.8-23.7,22.4-30,22.6c-4.9,0.1-9.6,0.2-13.9,0.4l-81.9,0c-0.3,0-0.5-0.2-0.5-0.5l0-21.7
	c0-0.4,0.2-0.6,0.6-0.6L560.4,571.9z"/>
<path class="st21" d="M236.9,599.7l94.9,0c0.3,0,0.5,0.2,0.6,0.6c0,0,0,0,0,0.1l-0.3,3c0,0.4-0.3,0.6-0.6,0.7
	c-0.9,0.2-2.1,0.3-3.6,0.3c-12.8-0.3-39.8,0.2-45.5,15.8c0,0.7-0.1,1.2-0.4,1.6c-0.2,0.3-0.5,0.4-0.8,0.2
	c-14.4-4.9-28.3-11.5-41.7-19.9C237.8,601.3,237,600.5,236.9,599.7z"/>
<path class="st21" d="M512.5,599.7l12,0.3c0.5,0,0.6,0.2,0.1,0.4c-11.5,7.3-23.6,13.4-36.3,18.4c-1.2,0.5-2.6,0.9-4.3,1.3
	c-0.3,0.1-0.6,0-0.7-0.3c-6.1-11.8-23.4-15.7-35.6-15l-12.6-0.3c-0.5,0-0.7-0.2-0.7-0.7l-0.3-3.3c0-0.5,0.2-0.7,0.7-0.7L512.5,599.7
	z"/>
</svg>
